<svg width="1024" height="1024" viewBox="0 0 1024 1024" fill="none" xmlns="http://www.w3.org/2000/svg">
<path d="M0 357.809C0 235.25 0 173.971 23.0928 126.832C45.2033 81.6991 81.6991 45.2033 126.832 23.0928C173.971 0 235.25 0 357.809 0H666.191C788.75 0 850.029 0 897.168 23.0928C942.301 45.2033 978.797 81.6991 1000.91 126.832C1024 173.971 1024 235.25 1024 357.809V666.191C1024 788.75 1024 850.029 1000.91 897.168C978.797 942.301 942.301 978.797 897.168 1000.91C850.029 1024 788.75 1024 666.191 1024H357.809C235.25 1024 173.971 1024 126.832 1000.91C81.6991 978.797 45.2033 942.301 23.0928 897.168C0 850.029 0 788.75 0 666.191V357.809Z" fill="#F05701"/>
<g opacity="0.4">
<path d="M539.565 278.073H274.517C265.407 278.077 256.671 281.695 250.226 288.133L102.547 435.812C98.0382 440.33 94.8759 446.015 93.414 452.229C91.9521 458.443 92.2485 464.941 94.2698 470.996C96.2911 477.051 99.9577 482.424 104.859 486.514C109.761 490.603 115.703 493.248 122.023 494.152L298.807 518.83" fill="#D9D9D9"/>
<path d="M539.565 278.073H274.517C265.407 278.077 256.671 281.695 250.226 288.133L102.547 435.812C98.0382 440.33 94.8759 446.015 93.414 452.229C91.9521 458.443 92.2485 464.941 94.2698 470.996C96.2911 477.051 99.9577 482.424 104.859 486.514C109.761 490.603 115.703 493.248 122.023 494.152L298.807 518.83" stroke="white" stroke-width="40" stroke-linecap="round" stroke-linejoin="round"/>
</g>
<g opacity="0.4">
<path d="M745.928 484.436V749.484C745.924 758.594 742.306 767.33 735.868 773.775L588.189 921.454C583.67 925.963 577.986 929.125 571.772 930.587C565.558 932.049 559.06 931.753 553.005 929.731C546.95 927.71 541.577 924.043 537.487 919.142C533.398 914.24 530.753 908.298 529.849 901.978L505.171 725.194" fill="#D9D9D9"/>
<path d="M745.928 484.436V749.484C745.924 758.594 742.306 767.33 735.868 773.775L588.189 921.454C583.67 925.963 577.986 929.125 571.772 930.587C565.558 932.049 559.06 931.753 553.005 929.731C546.95 927.71 541.577 924.043 537.487 919.142C533.398 914.24 530.753 908.298 529.849 901.978L505.171 725.194" stroke="white" stroke-width="40" stroke-linecap="round" stroke-linejoin="round"/>
</g>
<g style="mix-blend-mode:overlay">
<path d="M446.907 669.84C446.907 669.84 412.513 807.416 206.149 807.416C206.149 601.052 343.725 566.658 343.725 566.658" fill="#D9D9D9"/>
<path d="M446.907 669.84C446.907 669.84 412.513 807.416 206.149 807.416C206.149 601.052 343.725 566.658 343.725 566.658" stroke="white" stroke-width="40" stroke-linecap="round" stroke-linejoin="round"/>
</g>
<path d="M776.496 453.869C879.678 350.687 886.127 227.943 882.903 173.214C882.366 164.873 878.81 157.012 872.9 151.102C866.989 145.191 859.129 141.635 850.787 141.099C796.058 137.874 673.401 144.237 570.133 247.505L298.808 518.83L505.171 725.194L776.496 453.869Z" fill="white" stroke="white" stroke-width="40" stroke-linecap="round" stroke-linejoin="round"/>
</svg>
